<svg width="60" height="60" viewBox="0 0 60 60" fill="none" xmlns="http://www.w3.org/2000/svg">
<path d="M50.425 23.075L15.425 8.625C14.1007 8.07697 12.6471 7.91986 11.2363 8.17228C9.82543 8.4247 8.51648 9.07608 7.46435 10.0493C6.41222 11.0225 5.66097 12.2768 5.29955 13.6637C4.93812 15.0506 4.98166 16.5121 5.42499 17.875L9.27499 30L5.32499 42.125C4.86967 43.4934 4.81852 44.964 5.17768 46.3607C5.53683 47.7574 6.29106 49.021 7.34999 50C8.71159 51.2627 10.4932 51.9753 12.35 52C13.3368 51.9993 14.3138 51.8039 15.225 51.425L50.35 36.975C51.7179 36.4061 52.8868 35.4448 53.709 34.2123C54.5312 32.9799 54.97 31.5315 54.97 30.05C54.97 28.5685 54.5312 27.1201 53.709 25.8877C52.8868 24.6552 51.7179 23.6939 50.35 23.125L50.425 23.075ZM13.4 46.75C12.959 46.9319 12.4752 46.9838 12.0056 46.8997C11.536 46.8155 11.1004 46.5988 10.75 46.275C10.42 45.9596 10.1826 45.5599 10.0636 45.1192C9.94459 44.6785 9.94854 44.2136 10.075 43.775L13.725 32.5H48.05L13.4 46.75ZM13.725 27.5L9.99999 16.325C9.87354 15.8864 9.86959 15.4215 9.98858 14.9808C10.1076 14.5401 10.345 14.1404 10.675 13.825C10.9103 13.5782 11.1935 13.3821 11.5074 13.2488C11.8212 13.1156 12.159 13.0479 12.5 13.05C12.8351 13.0506 13.1667 13.1187 13.475 13.25L48.05 27.5H13.725Z" fill="white"/>
</svg>
