<svg width="60" height="60" viewBox="0 0 60 60" fill="none" xmlns="http://www.w3.org/2000/svg">
<path d="M54.15 25.625L31.65 5.625C31.1938 5.2242 30.6073 5.00316 30 5.00316C29.3927 5.00316 28.8062 5.2242 28.35 5.625L5.84999 25.625C5.46758 25.9633 5.19791 26.4105 5.07724 26.9066C4.95657 27.4027 4.99068 27.9239 5.17499 28.4C5.35629 28.8698 5.67525 29.274 6.09012 29.5595C6.50498 29.845 6.99639 29.9985 7.49999 30H9.99999V52.5C9.99999 53.163 10.2634 53.7989 10.7322 54.2678C11.2011 54.7366 11.837 55 12.5 55H47.5C48.163 55 48.7989 54.7366 49.2678 54.2678C49.7366 53.7989 50 53.163 50 52.5V30H52.5C53.0036 29.9985 53.495 29.845 53.9099 29.5595C54.3247 29.274 54.6437 28.8698 54.825 28.4C55.0093 27.9239 55.0434 27.4027 54.9227 26.9066C54.8021 26.4105 54.5324 25.9633 54.15 25.625ZM32.5 50H27.5V42.5C27.5 41.837 27.7634 41.2011 28.2322 40.7322C28.7011 40.2634 29.337 40 30 40C30.663 40 31.2989 40.2634 31.7678 40.7322C32.2366 41.2011 32.5 41.837 32.5 42.5V50ZM45 50H37.5V42.5C37.5 40.5109 36.7098 38.6032 35.3033 37.1967C33.8968 35.7902 31.9891 35 30 35C28.0109 35 26.1032 35.7902 24.6967 37.1967C23.2902 38.6032 22.5 40.5109 22.5 42.5V50H15V30H45V50ZM14.075 25L30 10.85L45.925 25H14.075Z" fill="white"/>
</svg>
