<svg width="60" height="60" viewBox="0 0 60 60" fill="none" xmlns="http://www.w3.org/2000/svg">
<path d="M39.275 31.775C41.726 29.8466 43.515 27.2023 44.3931 24.2099C45.2712 21.2174 45.1948 18.0257 44.1745 15.0787C43.1541 12.1317 41.2406 9.57598 38.7002 7.76714C36.1597 5.9583 33.1186 4.98626 30 4.98626C26.8814 4.98626 23.8403 5.9583 21.2998 7.76714C18.7594 9.57598 16.8459 12.1317 15.8255 15.0787C14.8052 18.0257 14.7288 21.2174 15.6069 24.2099C16.485 27.2023 18.274 29.8466 20.725 31.775C16.5252 33.4576 12.8607 36.2484 10.1222 39.8498C7.38374 43.4512 5.6739 47.7283 5.17499 52.225C5.13888 52.5533 5.16778 52.8855 5.26006 53.2026C5.35233 53.5198 5.50616 53.8156 5.71277 54.0733C6.13004 54.5937 6.73695 54.9271 7.39999 55C8.06303 55.0729 8.72789 54.8795 9.2483 54.4622C9.76872 54.045 10.1021 53.438 10.175 52.775C10.724 47.888 13.0542 43.3745 16.7205 40.097C20.3869 36.8194 25.1322 35.0076 30.05 35.0076C34.9677 35.0076 39.7131 36.8194 43.3794 40.097C47.0458 43.3745 49.376 47.888 49.925 52.775C49.993 53.3893 50.2861 53.9566 50.7478 54.3675C51.2094 54.7784 51.807 55.0037 52.425 55H52.7C53.3553 54.9246 53.9543 54.5932 54.3664 54.0781C54.7785 53.563 54.9703 52.9059 54.9 52.25C54.3987 47.7405 52.6797 43.4525 49.9271 39.8455C47.1746 36.2386 43.4923 33.4487 39.275 31.775ZM30 30C28.0222 30 26.0888 29.4135 24.4443 28.3147C22.7998 27.2159 21.5181 25.6541 20.7612 23.8268C20.0043 21.9996 19.8063 19.9889 20.1921 18.0491C20.578 16.1093 21.5304 14.3275 22.9289 12.9289C24.3274 11.5304 26.1093 10.578 28.0491 10.1921C29.9889 9.80629 31.9996 10.0043 33.8268 10.7612C35.6541 11.5181 37.2159 12.7998 38.3147 14.4443C39.4135 16.0888 40 18.0222 40 20C40 22.6522 38.9464 25.1957 37.0711 27.0711C35.1957 28.9464 32.6522 30 30 30Z" fill="white"/>
</svg>
