<svg width="40" height="40" viewBox="0 0 40 40" fill="none" xmlns="http://www.w3.org/2000/svg">
<path d="M28.3333 15V11.6666C28.3333 9.45651 27.4553 7.33689 25.8925 5.77409C24.3297 4.21129 22.2101 3.33331 20 3.33331C17.7899 3.33331 15.6702 4.21129 14.1074 5.77409C12.5446 7.33689 11.6667 9.45651 11.6667 11.6666V15C10.3406 15 9.0688 15.5268 8.13112 16.4644C7.19344 17.4021 6.66666 18.6739 6.66666 20V31.6666C6.66666 32.9927 7.19344 34.2645 8.13112 35.2022C9.0688 36.1399 10.3406 36.6666 11.6667 36.6666H28.3333C29.6594 36.6666 30.9312 36.1399 31.8689 35.2022C32.8065 34.2645 33.3333 32.9927 33.3333 31.6666V20C33.3333 18.6739 32.8065 17.4021 31.8689 16.4644C30.9312 15.5268 29.6594 15 28.3333 15ZM15 11.6666C15 10.3406 15.5268 9.06879 16.4645 8.13111C17.4021 7.19343 18.6739 6.66665 20 6.66665C21.3261 6.66665 22.5978 7.19343 23.5355 8.13111C24.4732 9.06879 25 10.3406 25 11.6666V15H15V11.6666ZM30 31.6666C30 32.1087 29.8244 32.5326 29.5118 32.8452C29.1993 33.1577 28.7754 33.3333 28.3333 33.3333H11.6667C11.2246 33.3333 10.8007 33.1577 10.4881 32.8452C10.1756 32.5326 9.99999 32.1087 9.99999 31.6666V20C9.99999 19.558 10.1756 19.134 10.4881 18.8215C10.8007 18.5089 11.2246 18.3333 11.6667 18.3333H28.3333C28.7754 18.3333 29.1993 18.5089 29.5118 18.8215C29.8244 19.134 30 19.558 30 20V31.6666Z" fill="#FFA800"/>
</svg>
