<svg width="32" height="32" viewBox="0 0 32 32" fill="none" xmlns="http://www.w3.org/2000/svg">
<path d="M26.6672 5.33276H5.33284C3.86724 5.33276 2.68004 6.53276 2.68004 7.99996L2.66724 24C2.66724 25.4672 3.86724 26.6672 5.33284 26.6672H26.6672C28.1328 26.6672 29.3328 25.4672 29.3328 24V7.99996C29.3328 6.53276 28.1328 5.33276 26.6672 5.33276ZM26.1328 11L16.7072 16.8944C16.4946 17.0253 16.2498 17.0946 16 17.0946C15.7503 17.0946 15.5055 17.0253 15.2928 16.8944L5.86724 11C5.7354 10.924 5.62023 10.8222 5.52859 10.7007C5.43695 10.5792 5.37073 10.4406 5.33387 10.2929C5.29701 10.1453 5.29028 9.99173 5.31407 9.84144C5.33785 9.69114 5.39168 9.54718 5.47233 9.41814C5.55297 9.28911 5.65879 9.17764 5.78346 9.0904C5.90814 9.00316 6.04911 8.94193 6.19797 8.91036C6.34682 8.8788 6.50051 8.87755 6.64986 8.90669C6.79921 8.93583 6.94116 8.99476 7.06724 9.07996L16 14.6672L24.9328 9.07996C25.0589 8.99476 25.2009 8.93583 25.3502 8.90669C25.4996 8.87755 25.6532 8.8788 25.8021 8.91036C25.951 8.94193 26.0919 9.00316 26.2166 9.0904C26.3413 9.17764 26.4471 9.28911 26.5277 9.41814C26.6084 9.54718 26.6622 9.69114 26.686 9.84144C26.7098 9.99173 26.7031 10.1453 26.6662 10.2929C26.6293 10.4406 26.5631 10.5792 26.4715 10.7007C26.3798 10.8222 26.2647 10.924 26.1328 11Z" fill="url(#paint0_linear_18_119)"/>
<defs>
<linearGradient id="paint0_linear_18_119" x1="2.66724" y1="15.9997" x2="29.3328" y2="15.9997" gradientUnits="userSpaceOnUse">
<stop stop-color="#388E3C"/>
<stop offset="0.0001" stop-color="#FFA800"/>
<stop offset="1" stop-color="#FACA6D"/>
</linearGradient>
</defs>
</svg>
