<svg width="32" height="32" viewBox="0 0 32 32" fill="none" xmlns="http://www.w3.org/2000/svg">
<path d="M25.64 20.3472L22.2528 19.96C21.8548 19.9134 21.4513 19.9575 21.0728 20.0892C20.6942 20.2208 20.3504 20.4365 20.0672 20.72L17.6128 23.1728C13.8283 21.2478 10.7522 18.1717 8.8272 14.3872L11.2928 11.92C11.8672 11.3472 12.1472 10.5472 12.0528 9.73282L11.6672 6.37282C11.5914 5.72227 11.2791 5.12231 10.7896 4.68713C10.3001 4.25195 9.66775 4.01195 9.0128 4.01282H6.7072C5.2 4.01282 3.9472 5.26722 4.04 6.77282C4.7472 18.16 13.8528 27.2528 25.2272 27.96C26.7328 28.0528 27.9872 26.8 27.9872 25.2928V22.9872C27.9905 22.3351 27.7527 21.7049 27.3194 21.2175C26.8861 20.7302 26.288 20.4202 25.64 20.3472Z" fill="url(#paint0_linear_18_117)"/>
<defs>
<linearGradient id="paint0_linear_18_117" x1="4.03516" y1="15.9886" x2="27.9872" y2="15.9886" gradientUnits="userSpaceOnUse">
<stop stop-color="#388E3C"/>
<stop offset="0.0001" stop-color="#FFA800"/>
<stop offset="1" stop-color="#FACA6D"/>
</linearGradient>
</defs>
</svg>
