<svg width="40" height="40" viewBox="0 0 40 40" fill="none" xmlns="http://www.w3.org/2000/svg">
<path d="M31.6667 10.8334H26.6667V9.16669C26.6667 7.8406 26.1399 6.56884 25.2022 5.63115C24.2645 4.69347 22.9928 4.16669 21.6667 4.16669H18.3333C17.0073 4.16669 15.7355 4.69347 14.7978 5.63115C13.8601 6.56884 13.3333 7.8406 13.3333 9.16669V10.8334H8.33334C7.00725 10.8334 5.73548 11.3601 4.7978 12.2978C3.86012 13.2355 3.33334 14.5073 3.33334 15.8334V30.8334C3.33334 32.1594 3.86012 33.4312 4.7978 34.3689C5.73548 35.3066 7.00725 35.8334 8.33334 35.8334H31.6667C32.9928 35.8334 34.2645 35.3066 35.2022 34.3689C36.1399 33.4312 36.6667 32.1594 36.6667 30.8334V15.8334C36.6667 14.5073 36.1399 13.2355 35.2022 12.2978C34.2645 11.3601 32.9928 10.8334 31.6667 10.8334ZM16.6667 9.16669C16.6667 8.72466 16.8423 8.30074 17.1548 7.98818C17.4674 7.67562 17.8913 7.50002 18.3333 7.50002H21.6667C22.1087 7.50002 22.5326 7.67562 22.8452 7.98818C23.1577 8.30074 23.3333 8.72466 23.3333 9.16669V10.8334H16.6667V9.16669ZM33.3333 30.8334C33.3333 31.2754 33.1577 31.6993 32.8452 32.0119C32.5326 32.3244 32.1087 32.5 31.6667 32.5H8.33334C7.89131 32.5 7.46739 32.3244 7.15482 32.0119C6.84226 31.6993 6.66667 31.2754 6.66667 30.8334V21.6667C10.9104 23.3503 15.4345 24.2155 20 24.2167C24.5654 24.2139 29.0891 23.3487 33.3333 21.6667V30.8334ZM33.3333 18.0167C29.1307 19.863 24.5903 20.8163 20 20.8163C15.4097 20.8163 10.8693 19.863 6.66667 18.0167V15.8334C6.66667 15.3913 6.84226 14.9674 7.15482 14.6548C7.46739 14.3423 7.89131 14.1667 8.33334 14.1667H31.6667C32.1087 14.1667 32.5326 14.3423 32.8452 14.6548C33.1577 14.9674 33.3333 15.3913 33.3333 15.8334V18.0167Z" fill="#FFA800"/>
</svg>
