<svg width="40" height="40" viewBox="0 0 40 40" fill="none" xmlns="http://www.w3.org/2000/svg">
<path d="M21.6667 23.3333H15C14.558 23.3333 14.134 23.5089 13.8215 23.8215C13.5089 24.134 13.3333 24.558 13.3333 25C13.3333 25.442 13.5089 25.8659 13.8215 26.1785C14.134 26.4911 14.558 26.6666 15 26.6666H21.6667C22.1087 26.6666 22.5326 26.4911 22.8452 26.1785C23.1577 25.8659 23.3333 25.442 23.3333 25C23.3333 24.558 23.1577 24.134 22.8452 23.8215C22.5326 23.5089 22.1087 23.3333 21.6667 23.3333ZM28.3333 6.66665H26.3667C26.0228 5.69406 25.3865 4.85164 24.5451 4.25488C23.7037 3.65811 22.6982 3.33621 21.6667 3.33331H18.3333C17.3017 3.33621 16.2963 3.65811 15.4549 4.25488C14.6134 4.85164 13.9772 5.69406 13.6333 6.66665H11.6667C10.3406 6.66665 9.0688 7.19343 8.13112 8.13111C7.19344 9.06879 6.66666 10.3406 6.66666 11.6666V31.6666C6.66666 32.9927 7.19344 34.2645 8.13112 35.2022C9.0688 36.1399 10.3406 36.6666 11.6667 36.6666H28.3333C29.6594 36.6666 30.9312 36.1399 31.8689 35.2022C32.8065 34.2645 33.3333 32.9927 33.3333 31.6666V11.6666C33.3333 10.3406 32.8065 9.06879 31.8689 8.13111C30.9312 7.19343 29.6594 6.66665 28.3333 6.66665ZM16.6667 8.33331C16.6667 7.89129 16.8423 7.46736 17.1548 7.1548C17.4674 6.84224 17.8913 6.66665 18.3333 6.66665H21.6667C22.1087 6.66665 22.5326 6.84224 22.8452 7.1548C23.1577 7.46736 23.3333 7.89129 23.3333 8.33331V9.99998H16.6667V8.33331ZM30 31.6666C30 32.1087 29.8244 32.5326 29.5118 32.8452C29.1993 33.1577 28.7754 33.3333 28.3333 33.3333H11.6667C11.2246 33.3333 10.8007 33.1577 10.4881 32.8452C10.1756 32.5326 9.99999 32.1087 9.99999 31.6666V11.6666C9.99999 11.2246 10.1756 10.8007 10.4881 10.4881C10.8007 10.1756 11.2246 9.99998 11.6667 9.99998H13.3333V11.6666C13.3333 12.1087 13.5089 12.5326 13.8215 12.8452C14.134 13.1577 14.558 13.3333 15 13.3333H25C25.442 13.3333 25.8659 13.1577 26.1785 12.8452C26.4911 12.5326 26.6667 12.1087 26.6667 11.6666V9.99998H28.3333C28.7754 9.99998 29.1993 10.1756 29.5118 10.4881C29.8244 10.8007 30 11.2246 30 11.6666V31.6666ZM25 16.6666H15C14.558 16.6666 14.134 16.8422 13.8215 17.1548C13.5089 17.4674 13.3333 17.8913 13.3333 18.3333C13.3333 18.7753 13.5089 19.1993 13.8215 19.5118C14.134 19.8244 14.558 20 15 20H25C25.442 20 25.8659 19.8244 26.1785 19.5118C26.4911 19.1993 26.6667 18.7753 26.6667 18.3333C26.6667 17.8913 26.4911 17.4674 26.1785 17.1548C25.8659 16.8422 25.442 16.6666 25 16.6666Z" fill="#FFA800"/>
</svg>
