<svg width="219" height="61" viewBox="0 0 219 61" fill="none" xmlns="http://www.w3.org/2000/svg">
<path d="M113.712 40.958C113.724 41.198 113.754 41.432 113.802 41.66C113.862 41.888 113.934 42.056 114.018 42.164C113.91 42.272 113.742 42.398 113.514 42.542C113.298 42.686 113.046 42.8 112.758 42.884C112.482 42.98 112.188 43.022 111.876 43.01C111.408 42.986 111.03 42.788 110.742 42.416C110.466 42.044 110.322 41.582 110.31 41.03C110.31 40.922 110.31 40.724 110.31 40.436C110.31 40.136 110.31 39.818 110.31 39.482C110.31 39.146 110.31 38.87 110.31 38.654C110.31 38.45 110.256 38.252 110.148 38.06C110.052 37.868 109.938 37.754 109.806 37.718C109.626 37.658 109.476 37.766 109.356 38.042C109.332 38.102 109.254 38.252 109.122 38.492C108.99 38.72 108.84 38.99 108.672 39.302C108.516 39.614 108.366 39.926 108.222 40.238C108.09 40.55 108 40.82 107.952 41.048C107.904 41.264 107.934 41.396 108.042 41.444C107.994 41.564 107.904 41.738 107.772 41.966C107.652 42.194 107.448 42.392 107.16 42.56C106.884 42.716 106.488 42.776 105.972 42.74C105.696 42.716 105.342 42.548 104.91 42.236C104.478 41.924 104.064 41.354 103.668 40.526C103.296 39.734 102.99 39.2 102.75 38.924C102.522 38.636 102.354 38.504 102.246 38.528C102.15 38.54 102.072 38.606 102.012 38.726C101.964 38.846 101.916 39.014 101.868 39.23C101.844 39.338 101.832 39.518 101.832 39.77C101.832 40.022 101.844 40.304 101.868 40.616C101.892 40.928 101.934 41.222 101.994 41.498C102.066 41.774 102.156 41.984 102.264 42.128C102.168 42.188 101.994 42.29 101.742 42.434C101.502 42.578 101.226 42.71 100.914 42.83C100.614 42.938 100.32 42.992 100.032 42.992C99.6003 42.98 99.2403 42.866 98.9523 42.65C98.6643 42.422 98.4903 41.978 98.4303 41.318C98.4183 41.21 98.4123 40.904 98.4123 40.4C98.4123 39.896 98.4123 39.26 98.4123 38.492C98.4123 37.724 98.4123 36.902 98.4123 36.026C98.4123 35.138 98.4123 34.262 98.4123 33.398C98.4123 32.534 98.4123 31.742 98.4123 31.022C98.4243 30.302 98.4303 29.726 98.4303 29.294C98.4303 28.862 98.4303 28.646 98.4303 28.646C98.5623 28.622 98.7843 28.616 99.0963 28.628C99.4083 28.64 99.7503 28.688 100.122 28.772C100.494 28.856 100.836 28.994 101.148 29.186C101.46 29.366 101.676 29.624 101.796 29.96C101.796 29.96 101.85 30.074 101.958 30.302C102.078 30.518 102.234 30.806 102.426 31.166C102.618 31.514 102.822 31.892 103.038 32.3C103.266 32.708 103.482 33.11 103.686 33.506C103.902 33.902 104.088 34.25 104.244 34.55C104.412 34.85 104.526 35.06 104.586 35.18C104.79 35.528 104.982 35.768 105.162 35.9C105.354 36.032 105.558 36.104 105.774 36.116C106.218 36.116 106.644 35.774 107.052 35.09C107.112 34.982 107.232 34.754 107.412 34.406C107.592 34.046 107.802 33.62 108.042 33.128C108.282 32.636 108.528 32.132 108.78 31.616C109.044 31.1 109.284 30.62 109.5 30.176C109.716 29.72 109.89 29.354 110.022 29.078C110.166 28.79 110.238 28.646 110.238 28.646C110.322 28.634 110.442 28.628 110.598 28.628C110.766 28.616 110.946 28.622 111.138 28.646C111.474 28.67 111.828 28.736 112.2 28.844C112.584 28.952 112.914 29.12 113.19 29.348C113.478 29.576 113.64 29.882 113.676 30.266C113.7 30.47 113.718 30.806 113.73 31.274C113.742 31.73 113.748 32.276 113.748 32.912C113.748 33.536 113.748 34.202 113.748 34.91C113.748 35.618 113.742 36.314 113.73 36.998C113.73 37.682 113.724 38.312 113.712 38.888C113.712 39.464 113.712 39.938 113.712 40.31C113.712 40.67 113.712 40.886 113.712 40.958ZM116.903 30.788C117.023 30.584 117.197 30.356 117.425 30.104C117.665 29.84 117.929 29.582 118.217 29.33C118.517 29.078 118.817 28.862 119.117 28.682C119.417 28.502 119.693 28.388 119.945 28.34C120.461 28.232 120.893 28.208 121.241 28.268C121.601 28.328 121.907 28.43 122.159 28.574C122.423 28.718 122.669 28.868 122.897 29.024C123.125 29.18 123.371 29.306 123.635 29.402C123.851 29.474 124.079 29.486 124.319 29.438C124.559 29.39 124.769 29.288 124.949 29.132C125.129 28.976 125.231 28.79 125.255 28.574C125.579 28.91 125.759 29.306 125.795 29.762C125.831 30.218 125.759 30.638 125.579 31.022C125.459 31.31 125.165 31.52 124.697 31.652C124.229 31.772 123.731 31.754 123.203 31.598C122.867 31.49 122.597 31.37 122.393 31.238C122.189 31.106 122.009 30.98 121.853 30.86C121.697 30.728 121.535 30.626 121.367 30.554C121.199 30.482 120.983 30.458 120.719 30.482C120.371 30.53 120.107 30.626 119.927 30.77C119.747 30.902 119.501 31.124 119.189 31.436C118.973 31.652 118.703 31.742 118.379 31.706C118.067 31.658 117.767 31.544 117.479 31.364C117.203 31.184 117.011 30.992 116.903 30.788ZM125.399 39.608C125.411 39.872 125.429 40.196 125.453 40.58C125.489 40.964 125.567 41.336 125.687 41.696C125.807 42.056 125.999 42.344 126.263 42.56C125.963 42.764 125.657 42.908 125.345 42.992C125.033 43.088 124.727 43.106 124.427 43.046C124.343 43.034 124.253 43.01 124.157 42.974C124.061 42.95 123.929 42.914 123.761 42.866C123.485 42.782 123.161 42.764 122.789 42.812C122.417 42.86 122.027 42.92 121.619 42.992C121.223 43.064 120.833 43.1 120.449 43.1C119.825 43.1 119.201 42.992 118.577 42.776C117.953 42.548 117.389 42.206 116.885 41.75C116.381 41.282 115.997 40.688 115.733 39.968C115.469 39.236 115.391 38.366 115.499 37.358C115.571 36.662 115.769 36.026 116.093 35.45C116.417 34.862 116.813 34.358 117.281 33.938C117.761 33.506 118.265 33.176 118.793 32.948C119.333 32.72 119.855 32.606 120.359 32.606C120.743 32.618 121.037 32.636 121.241 32.66C121.457 32.672 121.733 32.702 122.069 32.75C122.273 32.774 122.531 32.744 122.843 32.66C123.155 32.564 123.467 32.468 123.779 32.372C124.103 32.276 124.379 32.222 124.607 32.21C124.955 32.198 125.201 32.21 125.345 32.246C125.489 32.27 125.609 32.294 125.705 32.318C125.633 32.546 125.573 32.876 125.525 33.308C125.477 33.728 125.441 34.214 125.417 34.766C125.405 35.306 125.393 35.87 125.381 36.458C125.369 37.046 125.363 37.616 125.363 38.168C125.375 38.708 125.387 39.188 125.399 39.608ZM118.631 37.934C118.655 38.534 118.763 39.002 118.955 39.338C119.159 39.674 119.399 39.908 119.675 40.04C119.963 40.172 120.239 40.238 120.503 40.238C121.031 40.238 121.421 40.034 121.673 39.626C121.925 39.206 122.045 38.624 122.033 37.88C122.033 37.676 122.009 37.436 121.961 37.16C121.925 36.884 121.853 36.614 121.745 36.35C121.649 36.074 121.511 35.852 121.331 35.684C121.163 35.504 120.941 35.414 120.665 35.414C120.113 35.414 119.627 35.618 119.207 36.026C118.799 36.434 118.607 37.07 118.631 37.934ZM137.669 37.358C137.777 38.366 137.699 39.23 137.435 39.95C137.171 40.67 136.781 41.264 136.265 41.732C135.761 42.2 135.191 42.548 134.555 42.776C133.931 42.992 133.307 43.1 132.683 43.1C132.071 43.1 131.447 42.992 130.811 42.776C130.187 42.548 129.623 42.2 129.119 41.732C128.627 41.264 128.243 40.67 127.967 39.95C127.703 39.23 127.625 38.366 127.733 37.358C127.841 36.434 128.117 35.624 128.561 34.928C129.017 34.232 129.593 33.686 130.289 33.29C130.997 32.882 131.771 32.654 132.611 32.606C132.659 32.594 132.707 32.558 132.755 32.498C132.815 32.426 132.911 32.366 133.043 32.318C133.187 32.258 133.403 32.24 133.691 32.264C134.375 32.456 134.999 32.786 135.563 33.254C136.127 33.722 136.595 34.304 136.967 35C137.351 35.696 137.585 36.482 137.669 37.358ZM132.521 40.22C132.905 40.22 133.235 40.13 133.511 39.95C133.787 39.77 134.009 39.542 134.177 39.266C134.345 38.978 134.465 38.678 134.537 38.366C134.621 38.054 134.663 37.772 134.663 37.52C134.663 37.004 134.579 36.602 134.411 36.314C134.243 36.026 133.859 35.768 133.259 35.54C133.091 35.468 132.977 35.372 132.917 35.252C132.857 35.132 132.767 35.066 132.647 35.054C132.251 35.006 131.915 35.114 131.639 35.378C131.363 35.642 131.153 35.996 131.009 36.44C130.865 36.884 130.793 37.364 130.793 37.88C130.793 38.396 130.889 38.828 131.081 39.176C131.285 39.524 131.519 39.788 131.783 39.968C132.059 40.136 132.305 40.22 132.521 40.22ZM143.839 32.39C144.727 32.39 145.483 32.516 146.107 32.768C146.743 33.02 147.229 33.332 147.565 33.704C147.901 34.076 148.063 34.442 148.051 34.802C148.051 34.994 147.967 35.21 147.799 35.45C147.631 35.69 147.409 35.894 147.133 36.062C146.869 36.218 146.575 36.278 146.251 36.242C146.335 36.026 146.281 35.822 146.089 35.63C145.897 35.438 145.621 35.282 145.261 35.162C144.901 35.03 144.511 34.958 144.091 34.946C143.611 34.922 143.287 34.976 143.119 35.108C142.951 35.228 142.855 35.36 142.831 35.504C142.795 35.66 142.867 35.798 143.047 35.918C143.227 36.026 143.461 36.128 143.749 36.224C144.049 36.308 144.361 36.386 144.685 36.458C145.021 36.518 145.327 36.572 145.603 36.62C145.891 36.668 146.113 36.716 146.269 36.764C146.989 36.98 147.517 37.262 147.853 37.61C148.189 37.946 148.405 38.306 148.501 38.69C148.609 39.074 148.651 39.452 148.627 39.824C148.603 40.424 148.447 40.928 148.159 41.336C147.883 41.732 147.535 42.05 147.115 42.29C146.707 42.53 146.275 42.71 145.819 42.83C145.375 42.938 144.955 43.01 144.559 43.046C144.175 43.082 143.881 43.1 143.677 43.1C143.053 43.088 142.465 43.022 141.913 42.902C141.373 42.794 140.905 42.65 140.509 42.47C140.125 42.29 139.849 42.098 139.681 41.894C139.561 41.75 139.447 41.546 139.339 41.282C139.231 41.018 139.165 40.736 139.141 40.436C139.129 40.124 139.195 39.83 139.339 39.554C139.483 39.266 139.747 39.032 140.131 38.852C140.203 39.092 140.395 39.308 140.707 39.5C141.031 39.692 141.415 39.848 141.859 39.968C142.315 40.088 142.765 40.172 143.209 40.22C143.641 40.256 144.049 40.25 144.433 40.202C144.817 40.154 145.027 40.016 145.063 39.788C145.087 39.668 145.027 39.548 144.883 39.428C144.739 39.308 144.475 39.206 144.091 39.122C143.683 39.026 143.323 38.954 143.011 38.906C142.711 38.846 142.411 38.78 142.111 38.708C141.547 38.564 141.055 38.336 140.635 38.024C140.215 37.712 139.897 37.34 139.681 36.908C139.477 36.464 139.405 35.996 139.465 35.504C139.561 34.796 139.819 34.214 140.239 33.758C140.671 33.302 141.205 32.96 141.841 32.732C142.477 32.504 143.143 32.39 143.839 32.39Z" fill="white"/>
<path d="M104.172 45.43C104.88 45.43 105.558 45.556 106.206 45.808C106.866 46.048 107.418 46.372 107.862 46.78C108.318 47.188 108.588 47.626 108.672 48.094C108.732 48.406 108.69 48.754 108.546 49.138C108.402 49.51 108.174 49.84 107.862 50.128C107.55 50.404 107.172 50.554 106.728 50.578C106.572 50.578 106.374 50.56 106.134 50.524C105.894 50.488 105.66 50.416 105.432 50.308C105.216 50.2 105.042 50.044 104.91 49.84C105.09 49.744 105.21 49.642 105.27 49.534C105.33 49.426 105.348 49.318 105.324 49.21C105.276 48.97 105.132 48.772 104.892 48.616C104.664 48.46 104.382 48.364 104.046 48.328C103.854 48.304 103.632 48.31 103.38 48.346C103.128 48.37 102.894 48.454 102.678 48.598C102.474 48.73 102.33 48.952 102.246 49.264C102.198 49.444 102.204 49.642 102.264 49.858C102.336 50.062 102.504 50.26 102.768 50.452C103.032 50.632 103.434 50.788 103.974 50.92C104.802 51.112 105.57 51.322 106.278 51.55C106.998 51.778 107.628 52.06 108.168 52.396C108.708 52.732 109.122 53.152 109.41 53.656C109.71 54.148 109.848 54.766 109.824 55.51C109.812 56.002 109.68 56.518 109.428 57.058C109.176 57.598 108.81 58.102 108.33 58.57C107.85 59.026 107.262 59.398 106.566 59.686C105.87 59.974 105.078 60.118 104.19 60.118C103.626 60.118 103.044 60.07 102.444 59.974C101.844 59.878 101.274 59.728 100.734 59.524C100.206 59.32 99.7383 59.05 99.3303 58.714C98.9703 58.402 98.7123 58.012 98.5563 57.544C98.4123 57.076 98.3823 56.608 98.4663 56.14C98.5503 55.66 98.7603 55.252 99.0963 54.916C99.4443 54.58 99.9243 54.394 100.536 54.358C100.416 54.718 100.482 55.072 100.734 55.42C100.998 55.756 101.388 56.044 101.904 56.284C102.42 56.512 102.984 56.65 103.596 56.698C104.232 56.746 104.784 56.722 105.252 56.626C105.732 56.53 105.996 56.332 106.044 56.032C106.104 55.672 106.032 55.384 105.828 55.168C105.624 54.952 105.342 54.79 104.982 54.682C104.622 54.562 104.232 54.466 103.812 54.394C103.392 54.31 103.002 54.226 102.642 54.142C102.162 54.01 101.676 53.842 101.184 53.638C100.704 53.422 100.26 53.152 99.8523 52.828C99.4563 52.504 99.1323 52.108 98.8803 51.64C98.6283 51.172 98.4963 50.626 98.4843 50.002C98.4723 49.27 98.6223 48.622 98.9343 48.058C99.2463 47.482 99.6723 47.002 100.212 46.618C100.752 46.222 101.364 45.928 102.048 45.736C102.744 45.532 103.452 45.43 104.172 45.43ZM121.234 54.358C121.342 55.366 121.264 56.23 121 56.95C120.736 57.67 120.346 58.264 119.83 58.732C119.326 59.2 118.756 59.548 118.12 59.776C117.496 59.992 116.872 60.1 116.248 60.1C115.636 60.1 115.012 59.992 114.376 59.776C113.752 59.548 113.188 59.2 112.684 58.732C112.192 58.264 111.808 57.67 111.532 56.95C111.268 56.23 111.19 55.366 111.298 54.358C111.406 53.434 111.682 52.624 112.126 51.928C112.582 51.232 113.158 50.686 113.854 50.29C114.562 49.882 115.336 49.654 116.176 49.606C116.224 49.594 116.272 49.558 116.32 49.498C116.38 49.426 116.476 49.366 116.608 49.318C116.752 49.258 116.968 49.24 117.256 49.264C117.94 49.456 118.564 49.786 119.128 50.254C119.692 50.722 120.16 51.304 120.532 52C120.916 52.696 121.15 53.482 121.234 54.358ZM116.086 57.22C116.47 57.22 116.8 57.13 117.076 56.95C117.352 56.77 117.574 56.542 117.742 56.266C117.91 55.978 118.03 55.678 118.102 55.366C118.186 55.054 118.228 54.772 118.228 54.52C118.228 54.004 118.144 53.602 117.976 53.314C117.808 53.026 117.424 52.768 116.824 52.54C116.656 52.468 116.542 52.372 116.482 52.252C116.422 52.132 116.332 52.066 116.212 52.054C115.816 52.006 115.48 52.114 115.204 52.378C114.928 52.642 114.718 52.996 114.574 53.44C114.43 53.884 114.358 54.364 114.358 54.88C114.358 55.396 114.454 55.828 114.646 56.176C114.85 56.524 115.084 56.788 115.348 56.968C115.624 57.136 115.87 57.22 116.086 57.22ZM123.011 58.372C123.011 58.276 123.011 58.018 123.011 57.598C123.011 57.166 123.011 56.632 123.011 55.996C123.011 55.36 123.005 54.664 122.993 53.908C122.993 53.14 122.993 52.366 122.993 51.586C122.993 50.806 122.987 50.068 122.975 49.372C122.975 48.664 122.969 48.052 122.957 47.536C122.945 47.044 122.903 46.636 122.831 46.312C122.759 45.976 122.717 45.772 122.705 45.7C122.849 45.676 123.065 45.67 123.353 45.682C123.641 45.682 123.959 45.718 124.307 45.79C124.667 45.85 125.009 45.952 125.333 46.096C125.657 46.228 125.927 46.42 126.143 46.672C126.359 46.912 126.473 47.218 126.485 47.59C126.497 47.818 126.503 48.22 126.503 48.796C126.515 49.36 126.521 50.026 126.521 50.794C126.533 51.55 126.545 52.33 126.557 53.134C126.569 53.926 126.575 54.676 126.575 55.384C126.587 56.092 126.593 56.686 126.593 57.166C126.605 57.634 126.611 57.91 126.611 57.994C126.611 58.246 126.677 58.492 126.809 58.732C126.953 58.96 127.103 59.104 127.259 59.164C127.187 59.26 127.025 59.386 126.773 59.542C126.521 59.698 126.227 59.842 125.891 59.974C125.567 60.106 125.237 60.19 124.901 60.226C124.625 60.25 124.337 60.184 124.037 60.028C123.749 59.884 123.503 59.668 123.299 59.38C123.107 59.092 123.011 58.756 123.011 58.372ZM130.715 49.138C130.307 49.15 129.941 49.036 129.617 48.796C129.305 48.556 129.065 48.262 128.897 47.914C128.741 47.554 128.681 47.212 128.717 46.888C128.777 46.396 128.999 46.048 129.383 45.844C129.767 45.64 130.169 45.532 130.589 45.52C131.189 45.496 131.657 45.652 131.993 45.988C132.329 46.324 132.497 46.708 132.497 47.14C132.497 47.428 132.431 47.722 132.299 48.022C132.179 48.322 131.987 48.58 131.723 48.796C131.459 49 131.123 49.114 130.715 49.138ZM132.623 58.03C132.635 58.246 132.701 58.432 132.821 58.588C132.953 58.732 133.109 58.87 133.289 59.002C133.205 59.11 133.097 59.224 132.965 59.344C132.833 59.464 132.635 59.578 132.371 59.686C132.119 59.782 131.753 59.86 131.273 59.92C131.117 59.932 130.919 59.914 130.679 59.866C130.439 59.83 130.199 59.716 129.959 59.524C129.731 59.32 129.545 59.002 129.401 58.57C129.257 58.126 129.197 57.52 129.221 56.752C129.233 56.62 129.233 56.362 129.221 55.978C129.221 55.594 129.215 55.138 129.203 54.61C129.203 54.082 129.197 53.536 129.185 52.972C129.185 52.408 129.179 51.886 129.167 51.406C129.167 50.914 129.161 50.518 129.149 50.218C129.149 49.906 129.149 49.75 129.149 49.75C129.257 49.738 129.437 49.726 129.689 49.714C129.953 49.69 130.241 49.69 130.553 49.714C130.865 49.738 131.165 49.798 131.453 49.894C131.753 49.978 132.005 50.116 132.209 50.308C132.425 50.5 132.551 50.758 132.587 51.082C132.647 51.538 132.671 52.15 132.659 52.918C132.647 53.674 132.629 54.502 132.605 55.402C132.581 56.29 132.587 57.166 132.623 58.03ZM144.683 57.616C144.887 57.856 145.187 58.024 145.583 58.12C145.523 58.372 145.445 58.642 145.349 58.93C145.265 59.218 145.127 59.47 144.935 59.686C144.755 59.902 144.491 60.04 144.143 60.1C143.987 60.136 143.789 60.124 143.549 60.064C143.309 60.004 143.021 59.932 142.685 59.848C142.469 59.788 142.193 59.776 141.857 59.812C141.521 59.836 141.203 59.872 140.903 59.92C140.615 59.968 140.423 60.004 140.327 60.028C140.195 60.064 140.063 60.082 139.931 60.082C139.799 60.094 139.667 60.1 139.535 60.1C138.911 60.1 138.293 59.992 137.681 59.776C137.081 59.548 136.541 59.2 136.061 58.732C135.581 58.264 135.215 57.67 134.963 56.95C134.723 56.23 134.657 55.366 134.765 54.358C134.837 53.662 135.023 53.014 135.323 52.414C135.635 51.814 136.019 51.292 136.475 50.848C136.931 50.392 137.417 50.044 137.933 49.804C138.461 49.552 138.977 49.426 139.481 49.426C139.589 49.426 139.691 49.426 139.787 49.426C139.895 49.426 139.997 49.42 140.093 49.408C140.309 49.372 140.519 49.252 140.723 49.048C140.927 48.844 141.065 48.592 141.137 48.292C141.173 48.124 141.197 47.926 141.209 47.698C141.221 47.47 141.227 47.332 141.227 47.284C141.263 47.008 141.365 46.774 141.533 46.582C141.701 46.378 141.899 46.216 142.127 46.096C142.439 45.928 142.781 45.808 143.153 45.736C143.525 45.664 143.867 45.628 144.179 45.628C144.503 45.616 144.743 45.628 144.899 45.664C144.887 45.736 144.863 45.994 144.827 46.438C144.791 46.882 144.749 47.44 144.701 48.112C144.653 48.784 144.605 49.522 144.557 50.326C144.509 51.118 144.467 51.916 144.431 52.72C144.407 53.524 144.395 54.274 144.395 54.97C144.395 55.666 144.419 56.248 144.467 56.716C144.515 57.184 144.587 57.484 144.683 57.616ZM137.987 54.952C137.951 55.42 138.005 55.81 138.149 56.122C138.305 56.422 138.497 56.65 138.725 56.806C138.965 56.95 139.199 57.028 139.427 57.04C139.859 57.052 140.189 56.944 140.417 56.716C140.657 56.476 140.819 56.164 140.903 55.78C140.987 55.384 141.029 54.964 141.029 54.52C141.029 53.848 140.897 53.362 140.633 53.062C140.369 52.762 139.955 52.63 139.391 52.666C139.031 52.69 138.719 52.864 138.455 53.188C138.203 53.512 138.047 54.1 137.987 54.952ZM153.545 45.286C153.713 45.19 153.935 45.142 154.211 45.142C154.487 45.13 154.769 45.16 155.057 45.232C155.345 45.304 155.597 45.406 155.813 45.538C156.041 45.67 156.179 45.826 156.227 46.006C156.287 46.174 156.215 46.366 156.011 46.582C155.759 46.846 155.405 47.104 154.949 47.356C154.493 47.608 154.013 47.842 153.509 48.058C153.005 48.274 152.549 48.46 152.141 48.616C151.745 48.76 151.469 48.856 151.313 48.904C151.013 49.012 150.785 48.946 150.629 48.706C150.473 48.454 150.443 48.154 150.539 47.806C150.575 47.662 150.695 47.488 150.899 47.284C151.115 47.068 151.367 46.84 151.655 46.6C151.955 46.348 152.273 46.108 152.609 45.88C152.945 45.652 153.257 45.454 153.545 45.286ZM156.425 56.608C156.437 56.872 156.455 57.196 156.479 57.58C156.515 57.964 156.593 58.336 156.713 58.696C156.833 59.056 157.025 59.344 157.289 59.56C156.989 59.764 156.683 59.908 156.371 59.992C156.059 60.088 155.753 60.106 155.453 60.046C155.357 60.034 155.261 60.01 155.165 59.974C155.081 59.95 154.955 59.914 154.787 59.866C154.511 59.782 154.187 59.764 153.815 59.812C153.443 59.86 153.053 59.92 152.645 59.992C152.237 60.064 151.841 60.1 151.457 60.1C150.833 60.1 150.209 59.992 149.585 59.776C148.961 59.548 148.397 59.206 147.893 58.75C147.389 58.282 147.005 57.688 146.741 56.968C146.477 56.236 146.399 55.366 146.507 54.358C146.579 53.662 146.777 53.026 147.101 52.45C147.425 51.862 147.827 51.358 148.307 50.938C148.787 50.506 149.291 50.176 149.819 49.948C150.359 49.72 150.881 49.606 151.385 49.606C151.769 49.618 152.063 49.636 152.267 49.66C152.483 49.672 152.759 49.702 153.095 49.75C153.299 49.774 153.551 49.744 153.851 49.66C154.163 49.564 154.475 49.468 154.787 49.372C155.111 49.276 155.387 49.222 155.615 49.21C155.963 49.198 156.209 49.21 156.353 49.246C156.509 49.27 156.635 49.294 156.731 49.318C156.659 49.546 156.599 49.876 156.551 50.308C156.503 50.728 156.467 51.214 156.443 51.766C156.419 52.306 156.401 52.87 156.389 53.458C156.389 54.046 156.389 54.616 156.389 55.168C156.401 55.708 156.413 56.188 156.425 56.608ZM149.657 54.934C149.681 55.534 149.789 56.002 149.981 56.338C150.185 56.674 150.425 56.908 150.701 57.04C150.989 57.172 151.265 57.238 151.529 57.238C152.057 57.238 152.447 57.034 152.699 56.626C152.951 56.206 153.071 55.624 153.059 54.88C153.059 54.676 153.035 54.436 152.987 54.16C152.951 53.884 152.879 53.614 152.771 53.35C152.675 53.074 152.537 52.852 152.357 52.684C152.177 52.504 151.949 52.414 151.673 52.414C151.121 52.414 150.635 52.618 150.215 53.026C149.807 53.434 149.621 54.07 149.657 54.934ZM164.501 49.426C164.741 49.366 164.963 49.426 165.167 49.606C165.371 49.786 165.551 50.032 165.707 50.344C165.875 50.644 166.013 50.956 166.121 51.28C166.229 51.592 166.313 51.856 166.373 52.072C166.433 52.288 166.463 52.396 166.463 52.396C166.463 52.396 166.319 52.426 166.031 52.486C165.755 52.534 165.407 52.636 164.987 52.792C164.579 52.936 164.171 53.158 163.763 53.458C163.523 53.638 163.295 53.854 163.079 54.106C162.863 54.358 162.677 54.682 162.521 55.078C162.365 55.462 162.251 55.972 162.179 56.608C162.143 56.932 162.137 57.268 162.161 57.616C162.185 57.964 162.197 58.258 162.197 58.498C162.209 58.714 162.239 58.87 162.287 58.966C162.347 59.05 162.395 59.122 162.431 59.182C162.275 59.326 161.987 59.488 161.567 59.668C161.159 59.836 160.709 59.92 160.217 59.92C159.737 59.92 159.383 59.764 159.155 59.452C158.927 59.14 158.813 58.708 158.813 58.156C158.813 58.024 158.807 57.736 158.795 57.292C158.795 56.836 158.789 56.29 158.777 55.654C158.777 55.018 158.771 54.358 158.759 53.674C158.759 52.99 158.753 52.354 158.741 51.766C158.741 51.166 158.735 50.68 158.723 50.308C158.723 49.936 158.723 49.75 158.723 49.75C158.843 49.726 159.047 49.708 159.335 49.696C159.635 49.684 159.959 49.696 160.307 49.732C160.655 49.768 160.979 49.852 161.279 49.984C161.423 50.044 161.615 50.104 161.855 50.164C162.107 50.212 162.347 50.236 162.575 50.236C162.815 50.236 162.989 50.2 163.097 50.128C163.325 49.96 163.553 49.816 163.781 49.696C164.021 49.576 164.261 49.486 164.501 49.426ZM169.739 49.138C169.331 49.15 168.965 49.036 168.641 48.796C168.329 48.556 168.089 48.262 167.921 47.914C167.765 47.554 167.705 47.212 167.741 46.888C167.801 46.396 168.023 46.048 168.407 45.844C168.791 45.64 169.193 45.532 169.613 45.52C170.213 45.496 170.681 45.652 171.017 45.988C171.353 46.324 171.521 46.708 171.521 47.14C171.521 47.428 171.455 47.722 171.323 48.022C171.203 48.322 171.011 48.58 170.747 48.796C170.483 49 170.147 49.114 169.739 49.138ZM171.647 58.03C171.659 58.246 171.725 58.432 171.845 58.588C171.977 58.732 172.133 58.87 172.313 59.002C172.229 59.11 172.121 59.224 171.989 59.344C171.857 59.464 171.659 59.578 171.395 59.686C171.143 59.782 170.777 59.86 170.297 59.92C170.141 59.932 169.943 59.914 169.703 59.866C169.463 59.83 169.223 59.716 168.983 59.524C168.755 59.32 168.569 59.002 168.425 58.57C168.281 58.126 168.221 57.52 168.245 56.752C168.257 56.62 168.257 56.362 168.245 55.978C168.245 55.594 168.239 55.138 168.227 54.61C168.227 54.082 168.221 53.536 168.209 52.972C168.209 52.408 168.203 51.886 168.191 51.406C168.191 50.914 168.185 50.518 168.173 50.218C168.173 49.906 168.173 49.75 168.173 49.75C168.281 49.738 168.461 49.726 168.713 49.714C168.977 49.69 169.265 49.69 169.577 49.714C169.889 49.738 170.189 49.798 170.477 49.894C170.777 49.978 171.029 50.116 171.233 50.308C171.449 50.5 171.575 50.758 171.611 51.082C171.671 51.538 171.695 52.15 171.683 52.918C171.671 53.674 171.653 54.502 171.629 55.402C171.605 56.29 171.611 57.166 171.647 58.03ZM183.688 56.59C183.7 56.854 183.718 57.178 183.742 57.562C183.778 57.946 183.856 58.318 183.976 58.678C184.096 59.038 184.288 59.326 184.552 59.542C184.252 59.746 183.946 59.89 183.634 59.974C183.322 60.07 183.016 60.094 182.716 60.046C182.632 60.022 182.542 59.992 182.446 59.956C182.35 59.932 182.218 59.896 182.05 59.848C181.774 59.764 181.45 59.746 181.078 59.794C180.706 59.842 180.316 59.902 179.908 59.974C179.512 60.058 179.122 60.1 178.738 60.1C178.114 60.1 177.49 59.992 176.866 59.776C176.242 59.548 175.678 59.2 175.174 58.732C174.67 58.264 174.286 57.67 174.022 56.95C173.758 56.23 173.68 55.366 173.788 54.358C173.86 53.662 174.058 53.026 174.382 52.45C174.706 51.862 175.102 51.358 175.57 50.938C176.05 50.506 176.554 50.176 177.082 49.948C177.622 49.708 178.144 49.594 178.648 49.606C179.032 49.618 179.326 49.63 179.53 49.642C179.746 49.654 180.022 49.684 180.358 49.732C180.562 49.756 180.82 49.726 181.132 49.642C181.444 49.558 181.756 49.468 182.068 49.372C182.392 49.264 182.668 49.21 182.896 49.21C183.244 49.198 183.49 49.21 183.634 49.246C183.778 49.27 183.898 49.294 183.994 49.318C183.922 49.534 183.862 49.858 183.814 50.29C183.766 50.722 183.73 51.214 183.706 51.766C183.694 52.306 183.682 52.87 183.67 53.458C183.658 54.046 183.652 54.61 183.652 55.15C183.664 55.69 183.676 56.17 183.688 56.59ZM176.92 54.934C176.944 55.534 177.052 56.002 177.244 56.338C177.448 56.662 177.688 56.89 177.964 57.022C178.252 57.154 178.528 57.22 178.792 57.22C179.32 57.232 179.71 57.028 179.962 56.608C180.214 56.188 180.334 55.606 180.322 54.862C180.322 54.658 180.298 54.418 180.25 54.142C180.214 53.866 180.142 53.596 180.034 53.332C179.938 53.068 179.8 52.846 179.62 52.666C179.452 52.486 179.23 52.396 178.954 52.396C178.402 52.396 177.916 52.6 177.496 53.008C177.088 53.416 176.896 54.058 176.92 54.934ZM190.684 49.39C191.572 49.39 192.328 49.516 192.952 49.768C193.588 50.02 194.074 50.332 194.41 50.704C194.746 51.076 194.908 51.442 194.896 51.802C194.896 51.994 194.812 52.21 194.644 52.45C194.476 52.69 194.254 52.894 193.978 53.062C193.714 53.218 193.42 53.278 193.096 53.242C193.18 53.026 193.126 52.822 192.934 52.63C192.742 52.438 192.466 52.282 192.106 52.162C191.746 52.03 191.356 51.958 190.936 51.946C190.456 51.922 190.132 51.976 189.964 52.108C189.796 52.228 189.7 52.36 189.676 52.504C189.64 52.66 189.712 52.798 189.892 52.918C190.072 53.026 190.306 53.128 190.594 53.224C190.894 53.308 191.206 53.386 191.53 53.458C191.866 53.518 192.172 53.572 192.448 53.62C192.736 53.668 192.958 53.716 193.114 53.764C193.834 53.98 194.362 54.262 194.698 54.61C195.034 54.946 195.25 55.306 195.346 55.69C195.454 56.074 195.496 56.452 195.472 56.824C195.448 57.424 195.292 57.928 195.004 58.336C194.728 58.732 194.38 59.05 193.96 59.29C193.552 59.53 193.12 59.71 192.664 59.83C192.22 59.938 191.8 60.01 191.404 60.046C191.02 60.082 190.726 60.1 190.522 60.1C189.898 60.088 189.31 60.022 188.758 59.902C188.218 59.794 187.75 59.65 187.354 59.47C186.97 59.29 186.694 59.098 186.526 58.894C186.406 58.75 186.292 58.546 186.184 58.282C186.076 58.018 186.01 57.736 185.986 57.436C185.974 57.124 186.04 56.83 186.184 56.554C186.328 56.266 186.592 56.032 186.976 55.852C187.048 56.092 187.24 56.308 187.552 56.5C187.876 56.692 188.26 56.848 188.704 56.968C189.16 57.088 189.61 57.172 190.054 57.22C190.486 57.256 190.894 57.25 191.278 57.202C191.662 57.154 191.872 57.016 191.908 56.788C191.932 56.668 191.872 56.548 191.728 56.428C191.584 56.308 191.32 56.206 190.936 56.122C190.528 56.026 190.168 55.954 189.856 55.906C189.556 55.846 189.256 55.78 188.956 55.708C188.392 55.564 187.9 55.336 187.48 55.024C187.06 54.712 186.742 54.34 186.526 53.908C186.322 53.464 186.25 52.996 186.31 52.504C186.406 51.796 186.664 51.214 187.084 50.758C187.516 50.302 188.05 49.96 188.686 49.732C189.322 49.504 189.988 49.39 190.684 49.39Z" fill="#FFA800"/>
<path d="M71.9627 0.231071C71.6806 0.357439 71.3421 0.559627 71.2293 0.660721C70.8908 0.989277 70.383 2.07604 70.1574 2.85952C69.9035 3.71882 69.2547 7.48458 68.3802 12.8678C67.6186 17.6951 67.3083 19.2368 66.8851 20.6774C66.3774 22.396 65.8696 23.1794 65.249 23.1794C64.2335 23.1794 63.3308 20.8543 62.2025 15.6227C61.9486 14.4095 61.4126 11.958 61.0177 10.1383C60.6228 8.34388 60.1996 6.24617 60.0304 5.51324C59.3252 1.94967 58.6764 0.964004 57.0685 0.964004C55.4888 0.964004 54.6989 1.9244 54.6989 3.81991C54.6989 4.65394 55.4041 11.5031 55.7426 13.8788C55.9119 14.915 56.3915 17.9731 56.871 20.7279C57.6326 25.1255 57.7173 25.8332 57.6608 26.8188C57.4634 29.8011 56.1094 33.7438 54.84 35.058C53.1756 36.7513 50.6933 34.9064 47.3928 29.5231C45.9824 27.1979 44.2617 25.6815 42.1178 24.7464C40.2278 23.9377 38.6199 24.1398 37.9429 25.2771C37.7736 25.6057 37.8018 25.631 39.3815 27.5518C40.792 29.2451 41.0741 29.6747 41.4126 30.534C41.8921 31.7219 42.3435 32.5812 42.9923 33.4658C43.7257 34.4262 44.2899 35.5887 45.2208 38.0403C45.7003 39.304 46.2927 40.6687 46.5184 41.1237C47.2236 42.4884 48.0416 43.3477 53.5988 48.5288C56.6171 51.3594 58.1404 52.9264 58.4789 53.6341C58.761 54.2406 59.0713 55.7318 59.1841 57.1471C59.3252 58.8657 59.3816 59.1942 59.6919 59.4217C59.9458 59.6492 60.1714 59.6492 68.352 59.6492H76.7582L77.0685 59.3711C77.3506 59.1184 77.3788 58.9668 77.4352 57.602C77.5763 55.0494 77.943 53.6846 79.4945 50.2474C80.9049 47.0629 81.2998 45.7234 82.2872 40.4665C83.0206 36.5997 83.2745 35.7404 84.0925 33.9965C85.0798 31.9241 88.211 26.4397 90.1856 23.3058C92.7244 19.3126 93.5707 17.5687 93.5707 16.482C93.5707 15.4963 92.527 14.7381 91.5114 14.9908C90.9755 15.1172 90.101 15.8754 89.424 16.76C89.1983 17.0632 87.9571 18.8829 86.6313 20.8543C83.5283 25.4793 82.0051 27.577 81.187 28.2341C80.1433 29.1187 79.7201 28.9671 79.7201 27.7034C79.7201 26.6166 80.1715 24.6959 81.3563 20.7532C81.8922 18.984 82.8513 15.6732 83.5001 13.4239C84.1489 11.1745 84.7131 9.30427 84.7413 9.25372C84.9106 9.00099 85.1927 7.02965 85.108 6.57473C84.8824 5.26051 83.0206 4.72976 81.8358 5.66488C81.1306 6.2209 80.8485 6.80219 79.9176 9.55701C79.2688 11.4778 76.7018 18.15 75.8838 20.0708C74.9247 22.2696 74.022 23.7355 73.4296 24.0135C72.4705 24.4937 72.1884 22.952 72.6115 19.6159C72.809 18.0742 74.0502 10.0878 74.7554 5.81652C75.2914 2.50569 75.3196 2.12659 75.1503 1.4442C74.84 0.205797 73.3732 -0.350221 71.9627 0.231071Z" fill="white"/>
<path d="M21.608 0.581901C21.89 0.708269 22.2285 0.910457 22.3414 1.01155C22.6799 1.34011 23.1876 2.42687 23.4133 3.21035C23.6672 4.06965 24.316 7.83541 25.1905 13.2187C25.9521 18.0459 26.2624 19.5876 26.6855 21.0282C27.1933 22.7468 27.7011 23.5303 28.3217 23.5303C29.3372 23.5303 30.2399 21.2051 31.3682 15.9735C31.6221 14.7604 32.1581 12.3088 32.553 10.4891C32.9479 8.69471 33.371 6.597 33.5403 5.86407C34.2455 2.3005 34.8943 1.31483 36.5022 1.31483C38.0819 1.31483 38.8718 2.27523 38.8718 4.17074C38.8718 5.00477 38.1665 11.8539 37.828 14.2296C37.6588 15.2658 37.1792 18.3239 36.6997 21.0787C35.938 25.4763 35.8534 26.184 35.9098 27.1697C36.1073 30.1519 37.4613 34.0946 38.7307 35.4088C40.395 37.1022 42.8774 35.2572 46.1778 29.8739C47.5883 27.5488 49.309 26.0324 51.4529 25.0972C53.3429 24.2885 54.9508 24.4907 55.6278 25.628C55.7971 25.9565 55.7688 25.9818 54.1891 27.9026C52.7787 29.5959 52.4966 30.0256 52.1581 30.8849C51.6786 32.0727 51.2272 32.932 50.5784 33.8166C49.845 34.777 49.2808 35.9396 48.3499 38.3911C47.8704 39.6548 47.278 41.0196 47.0523 41.4745C46.3471 42.8393 45.529 43.6986 39.9719 48.8796C36.9536 51.7103 35.4303 53.2772 35.0918 53.9849C34.8097 54.5914 34.4994 56.0826 34.3866 57.4979C34.2455 59.2165 34.1891 59.5451 33.8788 59.7725C33.6249 60 33.3992 60 25.2187 60H16.8125L16.5022 59.722C16.2201 59.4692 16.1919 59.3176 16.1354 57.9528C15.9944 55.4002 15.6277 54.0354 14.0762 50.5982C12.6658 47.4138 12.2708 46.0743 11.2835 40.8174C10.5501 36.9505 10.2962 36.0912 9.47816 34.3473C8.49085 32.2749 5.35967 26.7906 3.38506 23.6566C0.84626 19.6634 -3.8147e-06 17.9195 -3.8147e-06 16.8328C-3.8147e-06 15.8471 1.04372 15.0889 2.05924 15.3416C2.59521 15.468 3.46968 16.2262 4.14669 17.1108C4.37236 17.4141 5.61355 19.2338 6.93937 21.2051C10.0423 25.8302 11.5656 27.9279 12.3837 28.585C13.4274 29.4696 13.8505 29.3179 13.8505 28.0542C13.8505 26.9675 13.3992 25.0467 12.2144 21.104C11.6784 19.3349 10.7193 16.024 10.0705 13.7747C9.42174 11.5253 8.85757 9.6551 8.82936 9.60455C8.66011 9.35182 8.37802 7.38048 8.46264 6.92556C8.68831 5.61134 10.5501 5.08059 11.7349 6.01571C12.4401 6.57173 12.7222 7.15302 13.6531 9.90784C14.3019 11.8286 16.8689 18.5008 17.6869 20.4216C18.646 22.6204 19.5487 24.0863 20.1411 24.3643C21.1002 24.8445 21.3823 23.3028 20.9592 19.9667C20.7617 18.425 19.5205 10.4386 18.8153 6.16735C18.2793 2.85652 18.2511 2.47742 18.4204 1.79503C18.7307 0.556627 20.1975 0.000609547 21.608 0.581901Z" fill="#FFA800"/>
</svg>
